<?xml version="1.0" encoding="utf-8"?>
<!-- Generator: Adobe Illustrator 19.0.0, SVG Export Plug-In . SVG Version: 6.00 Build 0)  -->
<svg version="1.1" id="layer" xmlns="http://www.w3.org/2000/svg" xmlns:xlink="http://www.w3.org/1999/xlink" x="0px" y="0px"
	 viewBox="-153 -46 652 652" style="enable-background:new -153 -46 652 652;" xml:space="preserve">
<style type="text/css">
	.st0{fill:#FFFFFF;}
</style>
<path class="st0" d="M468.3,311.9v-85.4h-17.8v32.4c-4.3-6.4-11-10.1-19.6-10.1c-16,0-28.7,14.4-28.7,32.1
	c0,17.8,12.7,32.2,28.7,32.2c8.7,0,15.4-3.7,19.6-10.1v8.8H468.3L468.3,311.9z M450.6,280.9c0,8.7-6.8,15.2-15.5,15.2
	c-8.6,0-15.5-6.7-15.5-15.2c0-8.4,6.9-15.2,15.5-15.2C443.8,265.7,450.6,272.3,450.6,280.9z M394.5,264.8c2.1,0,4.3,0.4,6.4,0.9
	v-16.1c-2-0.4-4-0.8-5.9-0.8c-6.9,0-12.3,3-16,8.3V250h-17.8v61.8H379v-30.5C379,270,386,264.8,394.5,264.8L394.5,264.8z
	 M353.5,234.1c0-5.8-4.9-10.7-10.8-10.7c-5.9,0-10.8,4.9-10.8,10.7c0,5.9,4.9,10.8,10.8,10.8C348.6,244.9,353.5,240,353.5,234.1z
	 M327.4,280.9c0-17.8-12.7-32.1-28.7-32.1c-8.6,0-15.2,3.5-19.5,9.9v-32.2h-17.8v85.4h17.8v-8.7c4.3,6.4,11,9.9,19.5,9.9
	C314.7,313.2,327.4,298.7,327.4,280.9z M310,280.9c0,8.6-6.8,15.2-15.4,15.2c-8.7,0-15.5-6.5-15.5-15.2c0-8.6,6.8-15.2,15.5-15.2
	C303.2,265.7,310,272.5,310,280.9z M234,311.9h17.8v-85.4H234v32.4c-4.3-6.4-11-10.1-19.6-10.1c-16,0-28.7,14.4-28.7,32.1
	c0,17.8,12.7,32.2,28.7,32.2c8.7,0,15.4-3.7,19.6-10.1V311.9z M234,280.9c0,8.7-6.8,15.2-15.5,15.2c-8.6,0-15.5-6.7-15.5-15.2
	c0-8.4,6.9-15.2,15.5-15.2C227.2,265.7,234,272.3,234,280.9z M161.3,311.9h17.8v-35c0-17.5-9.6-28.1-25.4-28.1
	c-7.1,0-12.8,3.4-16.8,9.3V250h-17.8v61.8h17.8v-32.7c0-8.1,4.8-13.4,12.2-13.4c7.3,0,12.2,5.3,12.2,13.4L161.3,311.9L161.3,311.9z
	 M112.3,285.2c0.3-2,0.4-4.9,0.4-6.3c0-17-13.7-30.1-30.5-30.1c-18,0-32.1,13.9-32.1,31.9c0,18.3,14.2,32.5,32.5,32.5
	c15.5,0,27.2-8.7,29.2-22H94.4c-1,4.3-5.4,7.3-12.3,7.3c-8.3,0-14.5-5.2-15.7-13.2C66.4,285.2,112.3,285.2,112.3,285.2z M94.2,273.9
	h-27c2.1-7.3,7.4-10.7,14.2-10.7C88,263.1,93.7,267.6,94.2,273.9z M8.8,267.8c0-2.9,3-4.3,7.1-4.3c5.7,0,9.1,2.8,9.3,5.9H43
	c-1.5-13.7-13.5-20.7-26.8-20.7c-15.2,0-24.6,8.8-24.6,20.3c0,23.1,34.8,14,34.8,24.2c0,2.9-3,4.7-8.3,4.7c-5.9,0-10.3-2.8-10.7-6.9
	h-17c1.3,14,12.5,22.2,28.6,22.2c14,0,24.7-8.7,24.7-20C43.7,267.3,8.8,277.4,8.8,267.8L8.8,267.8z M-29,274.8
	c0-28.4-23-51.3-51.3-51.3h-51.3v25.7c0,14,11.2,25.4,25.1,25.6h-25.1c0,28.4,23,51.3,51.3,51.3v0C-52,326.1-29,303.1-29,274.8z
	 M333.8,311.9h17.8v-61.8h-17.8V311.9z"/>
</svg>
